<?xml version="1.0" standalone="no"?>
<!DOCTYPE svg PUBLIC "-//W3C//DTD SVG 20010904//EN"
 "http://www.w3.org/TR/2001/REC-SVG-20010904/DTD/svg10.dtd">
<svg version="1.0" xmlns="http://www.w3.org/2000/svg"
 width="1024.000000pt" height="1024.000000pt" viewBox="0 0 1024.000000 1024.000000"
 preserveAspectRatio="xMidYMid meet">

<g transform="translate(0.000000,1024.000000) scale(0.100000,-0.100000)"
fill="#000000" stroke="none">
<path d="M5068 9339 c-10 -5 -18 -15 -18 -20 0 -6 6 -7 13 -2 6 4 17 8 22 9 6
0 17 2 25 3 13 1 13 2 0 11 -18 12 -21 12 -42 -1z"/>
<path d="M4785 9074 c-273 -26 -492 -84 -750 -199 -306 -136 -503 -268 -720
-482 -110 -108 -258 -278 -332 -381 -68 -96 -240 -441 -293 -590 -138 -390
-190 -860 -134 -1217 28 -179 138 -514 227 -690 92 -185 285 -456 444 -626 75
-79 261 -240 367 -317 176 -129 450 -268 675 -342 127 -42 367 -100 415 -100
28 0 18 28 -21 57 -61 47 -218 231 -263 309 -133 233 -194 598 -155 930 23
199 105 487 172 609 58 105 89 156 124 205 135 189 255 380 277 444 36 102 40
210 13 310 -24 86 -44 126 -138 264 -61 89 -72 122 -54 151 7 11 15 11 45 1
30 -10 48 -30 113 -128 131 -200 158 -273 157 -427 -2 -187 -43 -282 -263
-595 -174 -248 -268 -442 -325 -665 -48 -193 -57 -347 -31 -563 19 -155 34
-214 85 -345 70 -180 114 -244 290 -419 l157 -156 65 -7 c35 -4 129 -5 209 -3
l144 3 40 37 c22 20 69 61 105 90 92 76 217 229 272 334 52 99 96 238 124 389
23 124 26 464 5 560 -59 268 -177 501 -431 855 -166 231 -219 395 -188 583 22
128 47 189 139 327 66 99 84 121 111 128 39 11 68 -8 68 -43 0 -12 -37 -78
-82 -146 -102 -155 -125 -207 -140 -306 -10 -68 -9 -89 6 -148 25 -100 82
-207 195 -369 202 -287 255 -385 349 -646 l49 -135 5 155 c5 140 8 163 35 237
59 163 148 250 357 353 78 37 182 83 231 101 156 56 268 116 367 199 236 197
337 393 373 725 10 101 17 132 31 142 20 15 34 17 34 6 0 -5 5 -42 10 -83 24
-180 -50 -455 -165 -616 -26 -36 -82 -103 -125 -148 -126 -135 -189 -257 -212
-411 -11 -75 -10 -97 4 -167 29 -138 126 -260 256 -321 58 -27 78 -31 157 -32
l90 -1 3 -34 c6 -64 -38 -73 -197 -40 -159 33 -267 114 -338 257 -71 141 -80
279 -29 453 13 47 23 86 22 88 -2 1 -34 -15 -72 -37 -62 -34 -198 -87 -354
-136 -151 -48 -272 -148 -333 -276 -37 -77 -58 -177 -76 -359 -10 -103 -28
-160 -44 -138 -5 8 -6 -2 -2 -27 37 -244 -13 -680 -105 -912 -51 -127 -81
-168 -253 -340 l-122 -123 45 0 c89 0 345 69 526 140 292 116 640 343 849 554
175 178 399 470 460 601 13 28 39 76 58 107 35 58 120 278 156 403 29 101 57
244 77 386 39 298 -17 745 -137 1086 -45 125 -184 416 -243 508 -115 177 -348
444 -501 574 -191 163 -479 336 -690 414 -410 153 -493 169 -940 172 -159 2
-308 1 -330 -1z m-348 -185 c38 -14 90 -65 116 -114 19 -34 22 -57 22 -145 0
-97 -2 -110 -30 -164 -43 -85 -146 -191 -263 -269 -102 -69 -232 -198 -315
-313 -60 -83 -135 -250 -162 -359 -47 -194 -59 -312 -46 -440 27 -273 118
-460 328 -676 86 -90 105 -129 60 -129 -54 0 -158 94 -262 235 -97 134 -130
202 -173 364 -36 135 -37 138 -36 326 0 187 1 192 36 315 50 172 101 286 187
415 109 163 191 242 361 347 156 97 227 196 237 331 9 123 -18 168 -125 206
-49 18 -63 41 -42 66 15 18 67 19 107 4z m1351 -5 c34 -23 28 -51 -16 -73 -49
-25 -96 -78 -112 -127 -16 -46 -8 -154 15 -208 26 -61 100 -131 247 -233 211
-146 342 -292 429 -477 89 -190 129 -366 129 -567 0 -149 -20 -262 -70 -396
-55 -144 -93 -208 -203 -338 -91 -107 -152 -157 -209 -171 -45 -10 -35 18 30
88 82 90 186 226 232 305 45 79 104 248 119 343 37 229 -9 501 -123 728 -77
154 -242 331 -396 427 -144 89 -201 143 -245 230 -33 64 -38 85 -43 163 -5
102 9 160 60 237 51 76 109 102 156 69z m-611 -85 c49 -15 111 -65 144 -117
38 -60 56 -124 68 -239 12 -113 32 -161 99 -234 63 -69 114 -92 198 -90 74 1
98 -18 96 -76 -2 -48 -30 -85 -72 -96 -38 -10 -129 19 -190 59 -59 40 -158
163 -181 227 -12 31 -24 57 -28 57 -3 0 -29 -37 -56 -82 -44 -74 -50 -89 -48
-135 2 -69 35 -141 86 -191 23 -22 86 -63 139 -92 178 -94 208 -134 323 -419
64 -161 76 -229 55 -333 -17 -87 -53 -159 -102 -203 -53 -48 -171 -104 -236
-112 -50 -6 -52 -5 -52 18 0 13 -3 33 -6 44 -4 17 3 24 48 39 139 49 215 114
242 207 29 97 24 125 -69 354 -60 149 -79 187 -106 215 -15 14 -90 66 -168
114 -185 115 -241 185 -257 319 -11 96 1 139 70 240 117 171 129 217 78 298
-32 50 -99 114 -130 123 -30 10 -142 -44 -175 -84 -37 -44 -67 -104 -67 -134
0 -43 35 -122 94 -210 31 -46 61 -99 66 -117 16 -52 -5 -173 -41 -247 -35 -72
-77 -109 -222 -195 -52 -32 -112 -76 -132 -99 -44 -48 -98 -161 -149 -309 -30
-88 -36 -120 -36 -187 0 -101 21 -151 90 -216 47 -44 115 -73 214 -91 31 -6
36 -11 36 -34 0 -47 -13 -55 -78 -53 -112 5 -240 73 -299 160 -74 107 -95 240
-60 369 20 75 98 287 126 341 40 78 114 146 220 202 146 76 213 152 228 255 7
52 -2 76 -68 195 -71 127 -92 198 -86 290 6 90 23 134 72 188 77 86 202 117
322 81z m-981 -74 c48 -20 102 -80 115 -127 44 -164 -142 -320 -297 -249 -23
10 -50 32 -60 47 -18 27 -44 79 -44 89 0 5 76 45 84 45 3 0 12 -15 20 -34 29
-70 95 -97 150 -61 34 22 60 86 52 128 -12 63 -69 97 -165 97 -32 0 -73 3 -90
6 -26 5 -29 9 -19 21 46 55 167 74 254 38z m1934 7 c21 -11 34 -25 34 -35 -1
-9 3 -17 8 -17 6 0 6 -5 -1 -14 -9 -10 -21 -12 -51 -5 -83 19 -177 -32 -199
-108 -7 -24 -5 -38 10 -62 22 -36 74 -71 107 -71 65 0 157 70 168 127 7 35 24
46 24 16 0 -15 2 -15 9 -4 7 11 14 4 29 -28 l21 -42 -44 -62 c-59 -84 -91
-102 -181 -102 -99 1 -158 32 -194 100 -49 96 -25 221 49 255 13 6 21 14 17
17 -4 4 10 17 31 30 46 28 113 30 163 5z m-2377 -232 c20 0 33 -38 17 -54 -10
-8 -11 -6 -5 12 4 13 2 22 -4 22 -6 0 -11 -13 -11 -28 0 -16 -3 -32 -7 -36 -5
-4 -8 -11 -9 -14 0 -4 -8 -34 -18 -67 -9 -33 -21 -77 -27 -97 -11 -41 -28 -47
-74 -26 -23 10 -25 17 -25 72 0 82 28 158 75 206 35 36 40 38 55 25 9 -8 24
-15 33 -15z m2702 -98 c-2 -2 -13 2 -25 8 -17 9 -20 14 -9 20 8 6 17 2 25 -8
7 -9 11 -18 9 -20z m-2949 -77 c7 -19 14 -64 14 -100 0 -69 -8 -78 -44 -50
-26 20 -71 19 -101 -1 -23 -15 -27 -15 -50 0 -14 9 -25 21 -25 26 0 5 30 33
68 63 37 30 76 64 86 76 26 29 35 27 52 -14z m2898 -176 c21 -17 26 -28 24
-56 -2 -27 2 -38 17 -47 11 -6 31 -19 44 -28 27 -20 76 -24 87 -7 5 8 9 7 15
-4 6 -9 21 -14 40 -13 l31 2 -37 -34 c-20 -19 -43 -44 -51 -56 -20 -32 -20
-144 0 -184 41 -79 172 -116 251 -70 83 49 126 160 96 251 -15 45 -89 94 -154
103 -26 4 -52 13 -58 20 -6 8 -8 14 -4 14 3 0 -3 12 -14 26 -12 15 -21 29 -21
33 0 3 27 5 61 4 44 -1 82 -11 134 -34 68 -30 75 -35 102 -88 25 -50 28 -66
28 -156 0 -92 -3 -104 -29 -153 -42 -76 -112 -124 -205 -142 -182 -34 -342
179 -273 363 l21 55 -22 6 c-12 3 -35 6 -50 6 -54 0 -96 26 -117 72 l-19 43
32 6 32 6 -31 2 c-37 1 -50 29 -27 60 19 27 63 27 97 0z m-2556 -5 c18 -5 22
-13 22 -44 0 -51 -16 -92 -45 -112 -30 -22 -120 -58 -145 -58 -24 0 -27 -35
-5 -64 33 -44 7 -181 -46 -241 -17 -19 -60 -49 -95 -66 -57 -28 -71 -31 -124
-26 -74 6 -139 42 -181 100 -39 54 -63 138 -55 190 5 26 3 43 -5 48 -6 4 -14
29 -16 55 -6 67 19 105 96 144 33 16 72 30 85 30 24 0 98 -37 104 -52 5 -11
32 -10 32 1 0 12 82 -7 127 -29 l38 -19 45 48 c25 27 54 61 65 75 20 26 54 33
103 20z m671 -40 c38 -32 49 -80 27 -123 -19 -35 -50 -46 -102 -36 -80 15
-110 93 -58 154 34 41 88 43 133 5z m-243 -189 c26 -18 54 -74 54 -108 0 -39
-46 -87 -82 -87 -83 0 -165 135 -110 182 35 31 104 37 138 13z m1719 -5 c8 -7
20 -29 26 -50 9 -31 8 -43 -6 -74 -46 -97 -195 -84 -195 17 0 52 19 96 49 112
30 17 103 14 126 -5z m803 -47 c28 -39 -4 -93 -57 -93 -52 0 -72 60 -35 101
22 24 71 20 92 -8z m-3782 -110 c-1 -88 3 -115 18 -147 32 -64 122 -152 210
-206 163 -98 241 -217 286 -434 27 -132 53 -193 131 -312 38 -57 69 -107 69
-110 0 -31 -176 137 -239 229 -50 74 -99 184 -121 277 -35 145 -40 159 -62
171 -15 8 -27 8 -44 0 -20 -9 -24 -18 -24 -54 0 -135 102 -336 263 -516 31
-35 57 -67 57 -72 0 -14 -50 9 -121 57 -111 73 -244 225 -328 374 -56 98 -84
183 -116 355 -24 123 -26 159 -23 295 3 146 13 200 37 200 5 0 8 -48 7 -107z
m4162 21 c15 -93 9 -327 -13 -438 -40 -207 -160 -424 -329 -592 -89 -89 -221
-181 -248 -172 -8 3 21 39 69 90 135 141 227 303 253 445 12 69 5 94 -31 114
-33 17 -48 -6 -70 -107 -39 -174 -101 -296 -226 -445 -57 -68 -148 -147 -158
-137 -2 2 26 55 62 118 83 147 97 180 138 321 71 245 103 296 260 414 196 147
241 214 252 379 7 118 22 121 41 10z m-2078 -68 c0 -14 -6 -31 -14 -38 -12
-12 -6 -17 34 -31 29 -10 62 -33 84 -57 32 -35 36 -46 36 -93 0 -187 -258
-228 -326 -52 -16 42 -16 48 0 90 19 47 72 101 110 111 17 4 22 11 19 25 -10
36 5 69 32 69 20 0 25 -5 25 -24z m-956 -77 c61 -48 72 -115 27 -160 -23 -23
-38 -29 -72 -29 -66 0 -139 56 -139 108 0 27 38 72 74 88 45 19 79 17 110 -7z
m2015 -18 c39 -37 41 -78 6 -120 -49 -58 -125 -64 -177 -13 -41 38 -37 75 11
123 33 34 45 39 84 39 36 0 51 -6 76 -29z m-3283 -178 c16 -165 24 -211 59
-323 60 -193 194 -367 387 -503 80 -57 270 -149 428 -207 135 -50 287 -145
355 -223 99 -113 135 -224 135 -420 0 -131 -20 -243 -51 -279 -31 -38 -41 -8
-32 92 26 272 -20 452 -146 579 -69 70 -165 121 -293 156 -107 29 -263 97
-334 146 -25 17 -47 29 -49 27 -2 -2 7 -44 21 -93 50 -180 41 -304 -32 -452
-50 -102 -115 -165 -219 -215 -79 -38 -92 -41 -195 -46 -103 -5 -110 -4 -110
14 0 10 -3 29 -6 42 -6 21 -3 22 48 22 137 0 242 42 331 133 128 130 165 310
105 506 -36 116 -66 165 -179 291 -61 67 -125 145 -143 173 -139 221 -195 538
-125 710 20 48 31 16 45 -130z m1232 -148 c26 -28 32 -43 32 -78 0 -56 -23
-79 -87 -84 -59 -5 -123 28 -138 70 -21 61 61 145 130 132 17 -3 45 -21 63
-40z m2118 -6 c38 -37 40 -48 19 -89 -41 -80 -173 -79 -215 1 -14 25 11 81 49
110 39 31 102 22 147 -22z m1222 -224 c-1 -35 -12 -46 -21 -22 -3 6 -6 1 -7
-13 -1 -14 -4 -19 -7 -13 -6 16 16 83 27 83 5 0 9 -16 8 -35z m-3352 -71 c39
-19 64 -59 64 -102 0 -77 -126 -103 -204 -41 -39 31 -34 65 16 116 47 47 70
52 124 27z m2059 -8 c40 -17 68 -56 63 -88 -4 -31 -74 -68 -141 -75 -50 -5
-55 -3 -75 22 -12 15 -22 38 -22 51 0 33 49 84 90 94 49 11 47 11 85 -4z
m-3218 -310 c-3 -8 1 -17 9 -20 9 -3 12 -1 9 4 -3 6 -2 10 4 10 6 0 13 -11 17
-25 3 -14 11 -22 17 -18 6 3 7 1 3 -6 -6 -9 -11 -9 -22 0 -13 10 -13 8 -4 -15
5 -15 8 -31 5 -35 -9 -15 -45 -4 -69 22 l-25 27 25 19 c14 11 25 22 25 25 -2
18 0 26 5 26 3 0 4 -6 1 -14z m1413 -61 c36 -18 63 -66 55 -97 -13 -52 -105
-83 -172 -57 -34 13 -43 26 -42 64 0 83 83 130 159 90z m1586 7 c18 -11 34
-49 34 -77 0 -69 -51 -99 -168 -100 -63 0 -85 4 -92 15 -27 43 8 118 70 151
35 19 134 26 156 11z m1560 -77 c7 -19 14 -57 14 -84 0 -46 -2 -50 -22 -47
-13 1 -30 5 -38 8 -8 4 -28 10 -45 13 -16 4 -24 10 -17 12 6 3 12 18 12 35 0
28 -2 30 -27 24 -21 -5 -15 1 22 24 73 45 80 49 83 49 2 1 10 -15 18 -34z
m-4469 -47 c-3 -8 -6 -5 -6 6 -1 11 2 17 5 13 3 -3 4 -12 1 -19z m67 6 c3 -8
2 -12 -4 -9 -6 3 -10 10 -10 16 0 14 7 11 14 -7z m2030 -5 c35 -28 36 -80 1
-114 -30 -31 -56 -32 -91 -1 -21 17 -28 33 -28 59 0 70 63 100 118 56z m-2405
8 c-2 -1 -12 -9 -22 -16 -15 -12 -17 -12 -11 3 3 9 13 16 22 16 8 0 13 -1 11
-3z m48 -203 c-3 -3 -12 -4 -19 -1 -8 3 -5 6 6 6 11 1 17 -2 13 -5z m98 -8
c39 -17 65 -60 65 -111 0 -49 -39 -85 -91 -85 -46 0 -48 10 -14 60 26 38 25
70 -1 70 -8 0 -17 14 -20 30 -4 17 -11 30 -16 30 -5 0 -6 5 -3 10 9 14 40 12
80 -4z m-128 -4 c8 -5 3 -11 -13 -19 -21 -10 -23 -9 -15 1 6 7 8 16 4 19 -9 9
9 8 24 -1z m2419 -28 c22 -13 59 -41 81 -61 44 -41 63 -99 63 -188 l0 -44 43
19 c64 29 87 27 87 -10 0 -25 -10 -38 -55 -73 -95 -72 -177 -207 -240 -392
-24 -73 -34 -90 -50 -90 -17 0 -26 19 -56 107 -58 173 -173 344 -258 383 -45
20 -62 54 -40 81 12 15 28 15 85 -2 19 -5 22 0 28 38 15 97 34 126 130 199
100 75 106 76 182 33z m-2463 11 c-3 -9 -8 -14 -10 -11 -3 3 -2 9 2 15 9 16
15 13 8 -4z m4595 -27 c1 -36 17 -72 45 -105 36 -41 -9 -60 -56 -23 -36 28
-41 63 -18 115 11 25 22 45 24 45 2 0 4 -14 5 -32z m192 -23 c4 -37 -1 -60
-16 -80 -13 -17 -16 -18 -24 -5 -10 16 -6 46 12 93 11 30 25 26 28 -8z m-3665
-39 c65 -30 95 -64 102 -114 6 -47 -9 -62 -34 -32 -92 111 -240 110 -302 -2
-23 -41 -24 -48 -13 -87 23 -76 100 -101 185 -61 59 29 80 47 71 61 -4 8 -3
10 4 5 7 -4 12 -14 12 -22 0 -9 5 -12 12 -8 6 4 8 3 4 -4 -3 -6 -2 -13 4 -17
16 -10 -20 -64 -63 -93 -30 -20 -54 -26 -115 -30 -76 -4 -79 -3 -122 30 -59
44 -80 87 -80 163 1 96 46 171 132 218 48 25 141 23 203 -7z m2716 13 c89 -30
139 -103 140 -206 2 -129 -73 -212 -192 -213 -86 0 -169 67 -169 137 0 30 53
89 87 98 21 5 32 2 45 -15 17 -21 17 -23 -3 -62 -19 -38 -19 -41 -3 -59 36
-40 108 -12 134 51 22 54 7 110 -40 152 -49 44 -93 55 -156 39 -57 -15 -91
-37 -116 -76 -11 -16 -18 -22 -15 -13 3 9 -1 22 -9 28 -22 19 -17 33 30 79 65
64 179 89 267 60z m-2743 -217 c2 -7 -7 -12 -21 -12 -14 0 -27 -5 -29 -11 -2
-6 -12 -1 -22 10 -18 20 -18 21 5 30 26 9 61 1 67 -17z m3266 3 c3 -8 27 -29
53 -45 35 -22 49 -27 55 -17 6 9 8 8 9 -3 0 -12 2 -12 7 2 6 14 9 13 25 -8 17
-23 17 -24 -1 -24 -29 0 -115 47 -147 80 -16 16 -24 30 -18 30 6 0 13 -7 17
-15z m-3984 -40 c-43 -32 -50 -32 -19 -1 13 13 30 24 38 25 8 1 0 -10 -19 -24z
m3135 -149 c14 -58 14 -69 1 -94 -20 -37 -86 -103 -97 -96 -25 15 1 280 26
270 7 -2 18 0 26 4 18 12 25 -2 44 -84z m-1524 -68 c156 -90 273 -244 361
-475 10 -29 25 -53 31 -53 7 0 40 58 74 128 103 208 207 331 344 402 82 43
121 48 127 17 5 -26 -12 -42 -100 -99 -87 -55 -194 -166 -246 -252 -19 -30
-60 -117 -93 -192 -64 -150 -73 -164 -100 -164 -30 0 -59 40 -81 115 -62 204
-173 364 -325 467 -96 64 -113 82 -113 116 0 53 13 52 121 -10z m2018 -62 c73
-38 95 -209 37 -296 -22 -34 -44 -50 -109 -80 -45 -21 -95 -42 -110 -46 l-29
-7 16 31 c9 17 24 36 34 41 78 42 172 153 172 204 0 64 -89 108 -190 94 -96
-13 -269 -135 -325 -231 -34 -59 -82 -263 -105 -452 -32 -261 -97 -451 -193
-558 -32 -37 -48 -48 -61 -43 -24 9 -15 44 29 117 61 98 103 251 135 490 58
434 57 427 136 523 91 110 244 205 364 226 69 12 162 6 199 -13z m-2963 3
c139 -26 267 -126 316 -249 72 -178 78 -197 88 -321 29 -337 71 -508 155 -639
61 -95 69 -110 57 -122 -16 -16 -61 0 -91 33 -46 50 -109 181 -135 280 -31
115 -42 183 -61 380 -17 163 -51 291 -101 377 -38 64 -144 147 -223 174 -128
43 -272 22 -295 -44 -13 -36 18 -94 83 -153 132 -120 143 -135 99 -135 -44 0
-123 47 -179 107 -48 50 -59 68 -69 116 -6 32 -8 71 -5 88 9 39 66 96 108 108
45 13 182 13 253 0z m-474 -41 c20 -27 33 -123 23 -169 -7 -31 -8 -31 -57 -27
-66 7 -73 16 -46 65 l22 41 -27 39 c-31 46 -32 51 -11 74 20 22 71 10 96 -23z
m3724 5 c4 -14 2 -34 -5 -44 -26 -43 -7 -95 42 -112 27 -10 16 -29 -24 -43
-45 -17 -94 -17 -107 -1 -20 24 -32 103 -23 153 10 55 31 74 78 74 27 0 34 -5
39 -27z m-3946 -53 c0 -29 28 -81 54 -102 21 -17 21 -18 -19 -18 -63 0 -111
18 -139 51 -31 36 -27 45 28 70 54 25 76 24 76 -1z m4159 -6 c30 -6 32 -9 29
-42 -3 -39 -34 -64 -93 -76 -51 -10 -58 4 -30 59 34 65 40 69 94 59z m-2617
-146 c183 -96 301 -225 408 -448 74 -153 74 -153 85 -153 6 0 42 60 80 134 39
74 96 168 127 209 69 91 187 196 271 240 34 18 73 42 86 52 30 23 50 23 67 1
25 -33 15 -48 -53 -83 -119 -62 -246 -173 -333 -294 -41 -56 -137 -249 -175
-348 -20 -53 -83 -134 -95 -121 -5 4 -29 69 -55 143 -64 184 -92 242 -162 335
-76 101 -159 180 -254 241 -95 60 -119 82 -119 109 0 20 8 35 18 35 2 0 49
-23 104 -52z m1876 -2 c34 -76 22 -156 -39 -246 -64 -95 -155 -299 -184 -411
-9 -35 -23 -80 -31 -99 -20 -48 -77 -140 -86 -140 -15 0 -8 54 17 145 14 50
34 160 46 245 34 264 79 399 156 471 68 64 103 74 121 35z m-2662 -5 c93 -56
173 -268 189 -500 9 -117 21 -188 52 -309 25 -97 26 -121 5 -108 -22 13 -75
145 -127 315 -61 198 -82 247 -149 346 -56 81 -76 163 -60 244 5 25 11 31 33
31 14 0 40 -9 57 -19z m-696 -86 c103 -16 280 -68 355 -105 45 -21 113 -63
151 -93 108 -85 155 -161 219 -357 21 -63 48 -141 61 -172 13 -32 24 -67 24
-78 l0 -21 -40 22 c-61 35 -70 49 -107 176 -19 65 -48 145 -63 178 -89 184
-259 304 -487 345 -117 20 -151 35 -177 75 -21 32 -20 48 2 41 9 -2 37 -8 62
-11z m4034 -14 c6 -9 -28 -43 -61 -60 -12 -6 -59 -18 -104 -27 -117 -22 -163
-39 -257 -97 -153 -93 -242 -219 -327 -462 -24 -67 -38 -89 -83 -134 -31 -30
-57 -50 -59 -44 -2 6 9 44 25 84 16 41 37 99 45 130 28 97 104 258 149 316 24
31 76 84 115 118 87 74 176 112 368 154 139 31 181 36 189 22z m-1396 -199
c-2 -21 -17 -34 -63 -62 -97 -56 -183 -129 -254 -216 -121 -146 -201 -304
-246 -483 -13 -52 -29 -98 -37 -102 -7 -5 -39 -9 -70 -9 -69 0 -67 -2 -102
140 -48 197 -203 460 -333 564 -32 25 -87 67 -123 94 -69 51 -80 70 -55 96 15
14 19 14 53 -3 235 -122 425 -371 517 -681 12 -41 27 -76 33 -78 6 -2 21 29
33 68 12 39 31 83 44 98 12 15 37 56 55 92 96 191 237 350 409 461 85 55 108
66 123 58 13 -7 18 -19 16 -37z m1244 -9 c-66 -92 -441 -427 -459 -410 -22 22
72 218 135 282 76 76 233 152 320 154 l23 1 -19 -27z m-3681 -2 c96 -33 162
-72 219 -130 62 -64 117 -165 126 -235 8 -59 -6 -60 -73 -7 -92 73 -334 304
-364 348 l-30 43 34 0 c19 0 58 -8 88 -19z m2411 -296 c14 -31 -1 -50 -83
-105 -119 -81 -242 -248 -291 -395 -30 -89 -48 -109 -75 -83 -15 15 -15 24 -5
69 30 129 149 323 254 411 62 53 168 128 180 128 5 0 14 -11 20 -25z m-1143
-32 c132 -94 229 -218 290 -373 38 -97 53 -190 29 -190 -25 0 -55 43 -76 110
-43 133 -126 251 -251 355 -82 68 -104 103 -81 130 7 8 15 15 17 15 3 0 35
-21 72 -47z"/>
<path d="M3357 7990 c-69 -13 -117 -77 -117 -155 0 -57 17 -91 69 -138 73 -66
163 -71 229 -13 47 41 62 81 62 165 0 82 -11 98 -87 130 -53 22 -89 24 -156
11z m107 -132 c34 -48 10 -97 -46 -98 -57 0 -74 74 -28 120 23 23 48 16 74
-22z"/>
<path d="M4210 7837 c0 -8 7 -18 16 -21 11 -4 14 -1 12 11 -4 21 -28 30 -28
10z"/>
<path d="M5894 7839 c-10 -16 23 -46 36 -33 6 6 8 18 4 27 -7 19 -29 22 -40 6z"/>
<path d="M4056 7554 c-8 -21 1 -34 23 -34 25 0 32 10 20 31 -12 23 -35 25 -43
3z"/>
<path d="M6055 7556 c-18 -13 -18 -14 4 -25 24 -13 51 -8 51 8 0 20 -36 31
-55 17z"/>
<path d="M4000 7231 c0 -5 6 -11 13 -13 17 -7 38 2 31 13 -7 12 -44 12 -44 0z"/>
<path d="M6126 7234 c-4 -10 -2 -22 3 -27 14 -14 43 0 39 20 -4 24 -34 28 -42
7z"/>
<path d="M5018 6143 c-55 -52 -83 -103 -93 -173 -6 -41 -2 -52 36 -114 23 -38
55 -99 71 -135 50 -113 61 -123 72 -69 4 18 36 86 73 151 65 117 65 120 59
175 -4 32 -17 77 -29 102 -22 45 -95 110 -123 110 -8 0 -38 -21 -66 -47z m104
-130 c36 -32 15 -93 -32 -93 -23 0 -33 7 -45 31 -15 28 -15 33 0 55 18 28 51
31 77 7z"/>
<path d="M7210 8629 c-120 -50 -134 -213 -24 -276 50 -29 102 -29 145 0 101
68 105 188 8 259 -31 23 -95 32 -129 17z m115 -69 c62 -65 20 -180 -65 -180
-50 0 -91 43 -97 102 -4 38 -1 47 27 76 44 44 94 45 135 2z"/>
<path d="M7226 8518 c-20 -28 -20 -49 -2 -73 13 -18 15 -18 40 -2 30 20 43 61
26 82 -18 22 -46 18 -64 -7z"/>
<path d="M1621 6642 c-46 -36 -18 -132 37 -132 40 0 52 17 52 71 0 38 -5 51
-22 63 -29 20 -41 20 -67 -2z m58 -43 c-6 -12 -9 -30 -6 -40 3 -12 0 -19 -10
-19 -11 0 -13 7 -8 33 9 39 13 47 26 47 6 0 5 -8 -2 -21z"/>
<path d="M1846 6638 c-31 -44 -7 -94 40 -82 20 5 23 3 18 -11 -5 -13 -15 -16
-42 -12 -34 6 -34 6 -17 -13 34 -37 87 -20 104 33 12 36 7 61 -17 90 -21 24
-67 22 -86 -5z m60 -43 c-9 -23 -26 -9 -26 23 0 24 1 25 16 10 10 -9 14 -24
10 -33z"/>
<path d="M2075 6615 c-31 -30 -31 -47 -2 -81 19 -22 29 -26 51 -20 53 13 61
92 11 114 -34 16 -32 16 -60 -13z"/>
<path d="M8070 6632 c-56 -18 -65 -68 -19 -107 27 -22 34 -24 51 -13 28 18 52
63 45 81 -8 20 -58 46 -77 39z"/>
<path d="M8277 6602 c-22 -25 -21 -34 6 -60 31 -29 42 -28 57 9 23 54 -26 92
-63 51z"/>
<path d="M8430 6584 c0 -14 4 -23 10 -19 6 4 8 11 5 16 -4 5 -1 9 4 9 6 0 11
5 11 10 0 6 -7 10 -15 10 -9 0 -15 -10 -15 -26z"/>
<path d="M6718 3763 l-117 -4 -7 -35 c-8 -43 -1 -51 31 -36 14 7 35 12 46 12
20 0 21 -5 17 -105 l-3 -105 38 0 37 0 0 106 0 106 28 -6 c15 -4 35 -9 45 -12
14 -5 17 2 17 40 0 25 -3 45 -7 44 -5 -1 -61 -4 -125 -5z"/>
<path d="M3235 3751 c-3 -6 4 -15 15 -21 18 -10 20 -20 20 -109 0 -75 -4 -101
-15 -111 -8 -7 -15 -15 -15 -19 0 -3 38 -6 84 -5 69 1 90 6 115 23 39 28 49
63 27 96 -12 19 -14 30 -6 44 16 31 12 51 -19 82 -28 28 -34 29 -115 29 -46 0
-87 -4 -91 -9z m155 -62 c14 -26 -3 -49 -36 -49 -20 0 -24 5 -24 28 0 16 3 32
7 35 13 14 43 6 53 -14z m10 -114 c0 -17 -7 -28 -22 -34 -29 -11 -38 -6 -38
23 0 29 7 36 37 36 18 0 23 -5 23 -25z"/>
<path d="M3808 3753 c-98 -4 -109 -8 -86 -31 15 -15 13 -184 -3 -213 -9 -18
-5 -19 59 -19 38 0 84 -3 101 -6 30 -6 31 -5 31 28 l0 35 -57 -1 c-53 -1 -58
1 -61 22 -3 20 1 22 42 22 43 0 46 2 46 26 0 24 -3 25 -42 22 l-43 -3 -3 38
c-2 25 1 37 10 37 17 -1 78 -16 101 -25 14 -6 17 -1 17 34 0 23 -3 40 -7 39
-5 -1 -52 -4 -105 -5z"/>
<path d="M6221 3751 c-90 -5 -102 -8 -88 -20 14 -11 17 -33 17 -121 l0 -107
61 -7 c34 -3 82 -6 105 -6 44 0 44 0 44 35 0 39 -1 40 -45 24 -47 -17 -85 -5
-85 28 0 25 1 26 46 19 45 -6 45 -5 42 22 -2 23 -8 28 -36 30 -18 2 -40 -2
-48 -9 -12 -10 -14 -6 -14 25 l0 36 48 0 c26 0 53 -5 60 -12 18 -18 34 3 30
38 -3 33 2 32 -137 25z"/>
<path d="M4164 3733 c14 -35 19 -199 7 -221 -11 -21 -10 -22 34 -22 35 0 44 3
38 13 -7 11 -22 127 -16 127 2 0 35 -34 75 -75 51 -55 74 -72 80 -63 4 7 8 61
8 120 0 61 4 109 10 113 20 12 -1 25 -41 25 -37 0 -51 -12 -29 -25 6 -3 10
-29 10 -58 l0 -51 -68 67 c-44 44 -75 67 -91 67 -18 0 -22 -4 -17 -17z"/>
<path d="M5142 3743 c-63 -3 -73 -6 -70 -21 2 -11 14 -18 38 -20 58 -4 80 -12
80 -27 0 -8 -29 -50 -64 -94 -35 -44 -62 -82 -58 -85 3 -3 35 -6 71 -6 36 0
80 -4 98 -9 27 -8 32 -6 36 10 13 50 -20 75 -84 62 l-33 -6 22 30 c11 16 28
36 37 43 22 18 55 84 55 110 0 16 -6 20 -27 18 -16 -1 -61 -4 -101 -5z"/>
<path d="M5680 3748 c0 -2 11 -19 25 -38 21 -28 25 -45 25 -102 0 -46 -5 -77
-16 -93 l-16 -25 71 0 c79 0 117 14 150 56 27 34 27 89 1 131 -31 52 -63 66
-156 71 -46 3 -84 3 -84 0z m183 -89 c21 -26 22 -82 2 -99 -9 -7 -32 -13 -53
-14 l-37 -1 -3 74 -3 74 38 -6 c21 -4 46 -16 56 -28z"/>
<path d="M4680 3705 c0 -19 -7 -64 -15 -100 -12 -49 -13 -70 -5 -80 11 -13
195 -33 206 -23 2 3 -2 37 -11 77 -8 40 -15 92 -15 117 0 36 -3 44 -19 44 -37
0 -45 -25 -33 -94 16 -88 17 -86 -28 -86 l-40 0 0 84 c0 75 -2 84 -20 89 -17
4 -20 0 -20 -28z"/>
<path d="M5476 3704 c-3 -9 -3 -20 0 -25 12 -20 -19 -124 -43 -147 -14 -13
-23 -25 -21 -28 13 -12 130 -26 140 -16 21 21 -2 52 -43 58 -21 4 -39 12 -39
19 0 7 11 33 25 59 31 58 33 96 6 96 -10 0 -22 -7 -25 -16z"/>
<path d="M2780 3687 c-53 -27 -25 -112 40 -119 48 -6 65 75 24 116 -19 19 -31
20 -64 3z"/>
<path d="M7286 3685 c-38 -39 -27 -99 20 -111 32 -8 68 11 84 44 9 21 8 30 -8
51 -23 31 -72 39 -96 16z"/>
<path d="M7125 3683 c-42 -11 -39 -49 7 -88 37 -31 58 -32 87 -1 l23 25 -22
28 c-30 39 -51 47 -95 36z"/>
<path d="M2901 3653 l-21 -26 22 -24 c28 -30 68 -30 96 0 28 30 28 41 -3 61
-36 24 -70 20 -94 -11z"/>
<path d="M0 1315 l0 -1315 1578 0 1578 0 2 1315 3 1315 -1581 0 -1580 0 0
-1315z m1570 960 c75 -23 188 -80 230 -115 36 -31 31 -41 -8 -15 -12 9 -65 38
-119 65 -173 86 -326 92 -546 20 -108 -36 -134 -49 -189 -95 -36 -29 -93 -87
-128 -129 -35 -42 -65 -74 -67 -72 -11 10 74 120 138 180 67 62 166 121 242
146 128 41 339 48 447 15z m-360 -72 c0 -23 -48 -91 -69 -98 -9 -2 -38 3 -65
14 -42 15 -45 19 -26 24 13 3 36 -1 51 -9 15 -7 35 -14 43 -14 20 0 30 35 16
60 -9 17 -7 22 12 30 33 13 38 12 38 -7z m381 -1 c14 -6 14 -11 -2 -47 -18
-40 -21 -39 -33 16 -8 36 2 45 35 31z m-148 -40 c38 -39 60 -91 50 -118 -3 -8
-12 -13 -19 -10 -17 7 -50 -28 -59 -62 -9 -35 18 -69 88 -110 64 -38 98 -94
119 -194 20 -97 -13 -143 -110 -155 -35 -4 -52 -10 -52 -20 0 -19 28 -84 44
-103 8 -8 33 -53 57 -100 l43 -85 8 38 c14 67 33 91 90 116 135 60 179 84 202
111 16 19 26 25 29 17 3 -6 6 -2 6 10 1 12 17 54 36 94 19 40 38 88 41 106 9
46 24 41 24 -8 0 -38 -8 -64 -49 -149 -18 -37 -62 -93 -69 -86 -2 3 -17 -11
-33 -29 -19 -21 -49 -40 -82 -50 -129 -42 -170 -101 -173 -245 0 -47 -2 -94
-3 -105 -2 -36 -18 -1 -30 69 -13 74 -66 190 -136 296 -49 73 -69 137 -59 183
7 35 82 157 96 157 10 0 3 -32 -24 -109 -28 -84 -26 -95 20 -87 66 12 90 26
97 57 14 63 -44 172 -125 233 -28 21 -60 52 -72 68 -21 30 -21 30 -37 10 -9
-11 -36 -45 -59 -76 l-44 -55 47 -93 c42 -82 47 -97 42 -139 -6 -49 -44 -132
-101 -222 -138 -216 -164 -470 -66 -644 36 -62 36 -67 10 -51 -30 19 -65 84
-85 160 -14 52 -16 86 -11 160 19 275 19 302 -2 344 -11 21 -32 51 -46 66 -32
33 -32 38 -3 31 59 -15 92 -80 83 -168 l-6 -59 41 84 c22 46 56 105 75 131 35
48 64 108 64 132 0 9 -8 13 -23 10 -39 -8 -106 16 -123 42 -20 30 -32 111 -16
101 7 -4 12 -1 12 8 0 9 4 16 9 16 5 0 16 15 25 33 48 93 69 125 104 157 22
19 45 52 52 72 13 36 13 37 -24 79 -33 36 -37 46 -32 77 7 45 60 102 96 102
17 0 39 -13 63 -38z m207 -52 c0 -16 7 -20 35 -20 38 0 44 -10 19 -31 -12 -10
-19 -10 -32 -1 -10 7 -27 16 -39 22 -34 14 -28 45 10 49 4 1 7 -8 7 -19z m215
-1 c11 -17 0 -20 -21 -4 -17 13 -17 14 -2 15 9 0 20 -5 23 -11z m-837 -56 c-2
-10 -9 -18 -16 -17 -6 1 -27 2 -44 3 -31 2 -32 2 -14 16 29 22 78 20 74 -2z
m742 -14 c-52 -7 -63 -3 -37 16 15 11 25 11 50 2 l32 -11 -45 -7z m-860 -55
c0 -3 -11 -19 -25 -36 -14 -16 -25 -38 -25 -48 0 -19 53 -70 73 -70 8 0 8 -3
0 -11 -8 -8 -17 -8 -30 0 -31 16 -45 38 -54 84 -6 35 -4 45 14 65 19 20 47 30
47 16z m700 -3 c0 -12 -46 -41 -64 -41 -17 0 -39 34 -29 44 10 9 93 7 93 -3z
m-590 -62 c0 -33 -7 -37 -25 -12 -13 17 -14 17 -32 0 -22 -19 -39 -22 -48 -7
-11 17 29 45 68 47 35 1 37 0 37 -28z m803 -19 c-17 -43 -33 -53 -33 -20 0 11
4 20 9 20 5 0 13 9 16 20 3 11 10 20 15 20 5 0 1 -18 -7 -40z m61 24 c3 -8 2
-12 -4 -9 -6 3 -10 10 -10 16 0 14 7 11 14 -7z m-130 -102 c37 -80 38 -86 34
-170 -3 -64 -10 -98 -26 -129 -13 -24 -24 -43 -27 -43 -4 0 7 41 24 83 23 59
1 208 -44 297 -28 55 -34 84 -12 60 7 -8 30 -52 51 -98z m-674 22 c-6 -26 -15
-53 -19 -59 -5 -5 -11 -23 -15 -39 -4 -15 -9 -26 -12 -23 -5 5 32 152 43 170
12 19 13 -4 3 -49z m-310 3 c0 -11 30 -50 66 -87 58 -60 69 -77 85 -137 10
-37 18 -77 18 -88 0 -18 -2 -17 -22 6 -12 15 -47 65 -77 112 -30 48 -56 84
-58 82 -4 -4 42 -136 58 -165 15 -28 -4 -33 -27 -7 -37 41 -65 115 -64 170 0
29 0 77 0 107 1 40 3 51 11 40 5 -8 10 -23 10 -33z m1110 -14 c-11 -17 -11
-17 -6 0 3 10 7 26 7 35 1 15 2 15 6 0 2 -10 -1 -25 -7 -35z m119 -45 c0 -29
-6 -74 -15 -99 -16 -51 -57 -112 -68 -102 -3 4 -22 -8 -41 -27 l-35 -34 11 35
c7 19 14 60 18 92 6 53 10 60 58 102 29 25 55 54 58 65 10 31 13 24 14 -32z
m-994 -63 c-11 -34 -16 -70 -12 -96 6 -44 63 -169 76 -169 10 0 36 -59 29 -66
-7 -6 -47 47 -80 106 -23 40 -38 86 -43 130 -1 8 -5 25 -9 38 -5 15 1 39 21
78 33 65 42 55 18 -21z m400 61 c26 -19 13 -46 -24 -46 -38 0 -48 16 -25 41
20 23 25 23 49 5z m721 -207 c25 -49 20 -59 -23 -44 -33 12 -38 18 -36 41 4
47 11 58 29 43 8 -7 22 -25 30 -40z m-1323 -65 c30 -33 69 -61 108 -79 33 -15
58 -29 56 -32 -3 -2 -37 5 -75 16 -60 18 -77 29 -116 72 -25 28 -46 56 -46 63
0 6 -3 22 -6 36 l-5 25 18 -25 c10 -14 39 -48 66 -76z m1005 -43 c-13 -22 -29
-43 -37 -46 -10 -4 -8 3 4 22 50 78 74 94 33 24z m-1181 -21 c-3 -11 -1 -20 4
-20 4 0 6 -7 3 -15 -11 -27 -24 -16 -24 20 0 19 5 35 11 35 6 0 9 -9 6 -20z
m983 -30 c0 -38 -61 -49 -75 -13 -7 20 11 33 48 33 20 0 27 -5 27 -20z m-429
-10 c-27 -23 -51 -26 -51 -7 0 21 11 27 44 27 l31 -1 -24 -19z m-434 -5 c0 -8
-4 -15 -9 -15 -4 0 -8 7 -8 15 0 8 4 15 8 15 5 0 9 -7 9 -15z m67 -12 c11 -28
-6 -35 -20 -8 -17 34 -17 36 0 29 8 -3 17 -12 20 -21z m193 1 c-3 -3 -12 -4
-19 -1 -8 3 -5 6 6 6 11 1 17 -2 13 -5z m-287 -24 c0 -5 -5 -10 -11 -10 -5 0
-7 5 -4 10 3 6 8 10 11 10 2 0 4 -4 4 -10z m1204 -38 c-6 -46 -4 -50 26 -75
17 -15 39 -27 48 -28 10 0 12 -3 5 -5 -14 -6 -64 18 -81 39 -19 22 -20 117 -2
117 7 0 8 -18 4 -48z m76 32 c0 -8 -4 -12 -10 -9 -6 3 -10 -4 -10 -16 0 -12
-3 -20 -6 -16 -9 9 5 57 16 57 6 0 10 -7 10 -16z m-1223 -24 c1 -10 -2 -22 -7
-25 -6 -4 -10 7 -10 26 0 34 12 33 17 -1z m1273 -16 c0 -19 -4 -34 -9 -34 -4
0 -8 18 -7 39 1 48 16 44 16 -5z m-1219 3 c-10 -9 -11 -8 -5 6 3 10 9 15 12
12 3 -3 0 -11 -7 -18z m564 13 c3 -6 3 -19 0 -30 -7 -22 -31 -26 -55 -10 -13
9 -12 13 9 30 26 22 37 25 46 10z m435 -8 c0 -5 -18 -14 -39 -21 -22 -6 -49
-23 -60 -38 -15 -19 -21 -21 -21 -9 0 8 17 26 38 39 54 35 82 44 82 29z
m-1135 -12 c3 -5 1 -10 -4 -10 -6 0 -11 5 -11 10 0 6 2 10 4 10 3 0 8 -4 11
-10z m-24 -35 c44 -39 63 -43 92 -17 19 17 19 16 6 -6 -18 -30 -51 -37 -99
-23 -36 10 -49 29 -50 69 0 19 10 15 51 -23z m242 20 c-3 -9 -8 -14 -10 -11
-3 3 -2 9 2 15 9 16 15 13 8 -4z m111 -1 c10 -25 7 -59 -6 -72 -7 -7 -28 -12
-47 -12 l-36 0 33 20 c39 24 49 45 32 65 -10 12 -10 15 3 15 8 0 18 -7 21 -16z
m786 -24 c0 -5 -10 -10 -22 -10 -19 0 -20 2 -8 10 19 13 30 13 30 0z m60 -9
c0 -30 -48 -81 -76 -81 -23 0 -64 31 -64 49 0 5 8 15 17 22 15 12 16 12 11 -3
-4 -10 1 -23 13 -34 24 -22 52 -9 57 25 2 12 8 19 13 16 5 -4 9 1 9 9 0 9 5
16 10 16 6 0 10 -9 10 -19z m134 13 c20 -8 21 -24 2 -24 -8 0 -16 7 -20 15 -6
17 -4 18 18 9z m-666 -78 c17 -27 32 -53 32 -59 0 -16 -43 31 -70 77 -34 56
-3 42 38 -18z m64 17 c2 -54 -2 -100 -11 -125 -5 -14 -8 12 -9 70 0 51 4 92 9
92 5 0 10 -17 11 -37z m658 7 c0 -5 -10 -10 -22 -9 -22 0 -22 1 -3 9 11 5 21
9 23 9 1 1 2 -3 2 -9z m-735 -112 l67 -73 -4 -77 c-3 -43 -2 -78 1 -78 4 0 15
15 25 33 10 17 37 51 59 74 51 53 42 67 -14 22 -34 -27 -40 -29 -30 -11 20 37
82 93 99 90 38 -7 24 -46 -42 -118 -51 -55 -69 -83 -82 -128 -9 -31 -19 -64
-21 -72 -3 -8 -10 6 -17 31 -11 40 -46 96 -127 202 -11 15 -17 27 -12 27 11 0
89 -89 118 -134 l20 -31 3 67 c4 82 -17 127 -83 186 -42 37 -57 62 -36 62 5 0
39 -33 76 -72z m185 67 c0 -3 -18 -30 -40 -59 -21 -30 -46 -69 -54 -87 -16
-38 -21 -24 -6 16 23 59 100 159 100 130z m-574 -21 c22 -9 52 -28 67 -42 55
-51 60 -73 64 -257 3 -179 -10 -209 -21 -50 -4 50 -9 103 -13 119 -3 19 -2 26
6 22 15 -10 14 12 -5 68 -15 45 -25 55 -124 135 -30 25 -24 26 26 5z m-124
-17 c-12 -13 -22 -30 -22 -38 0 -9 -3 -18 -6 -21 -8 -8 -105 29 -123 47 -14
13 -10 15 31 15 39 0 47 -4 53 -22 l8 -23 4 22 c2 12 16 26 31 32 42 15 47 13
24 -12z m1246 -8 c-3 -21 -32 -48 -42 -39 -2 3 -2 17 1 33 7 34 46 40 41 6z
m-1178 4 c-1 -5 -7 -19 -15 -33 -30 -52 -12 -131 49 -220 20 -29 41 -70 46
-92 6 -21 14 -47 17 -56 11 -35 -47 58 -93 146 -27 53 -48 110 -51 136 -3 25
-10 46 -14 46 -17 0 -9 21 19 50 27 29 42 37 42 23z m1060 -23 c11 -11 20 -27
20 -37 0 -15 -1 -15 -19 1 -44 40 -138 38 -175 -3 -15 -17 -56 -156 -57 -194
0 -12 -9 -47 -19 -77 l-20 -55 6 50 c3 28 9 96 13 153 8 116 24 149 82 169 57
20 146 16 169 -7z m-961 -105 c11 -22 22 -78 26 -124 6 -77 5 -84 -9 -72 -9 8
-16 19 -16 25 0 6 -14 40 -30 74 -17 35 -27 69 -23 74 3 7 1 8 -5 4 -13 -8
-32 24 -32 53 0 23 15 28 24 9 4 -7 4 3 1 22 l-5 35 25 -30 c15 -16 34 -48 44
-70z m891 37 c0 -4 -27 -60 -60 -125 -33 -64 -60 -127 -60 -139 0 -15 -3 -19
-8 -10 -10 15 4 157 20 197 12 33 46 75 60 75 5 0 7 -10 3 -22 -6 -22 -6 -22
9 -4 9 11 16 23 16 28 0 4 5 8 10 8 6 0 10 -3 10 -8z m54 0 c8 -14 -12 -77
-37 -113 -13 -19 -26 -42 -30 -53 -7 -18 -6 -18 20 -1 16 10 37 29 48 42 20
22 85 34 85 15 0 -25 -34 -51 -76 -58 -48 -7 -56 -15 -105 -101 -16 -29 -34
-53 -39 -53 -15 0 -13 9 26 100 19 47 40 99 46 115 5 17 16 43 23 59 7 16 11
35 8 43 -6 14 22 19 31 5z m-1121 -27 l18 -25 -55 0 c-30 0 -61 3 -70 6 -29
11 -16 24 24 24 22 0 40 5 40 10 0 18 25 10 43 -15z m1190 -22 c-7 -2 -21 -2
-30 0 -10 3 -4 5 12 5 17 0 24 -2 18 -5z m-1220 -57 c18 -7 39 -22 48 -32 25
-28 82 -134 73 -134 -7 0 -174 169 -174 177 0 7 22 2 53 -11z m471 -53 c46
-48 106 -156 124 -223 10 -34 10 -34 11 18 1 29 5 51 9 48 4 -3 21 24 36 59
32 74 95 138 129 133 33 -5 35 -38 3 -38 -37 0 -96 -56 -123 -118 -16 -36 -25
-82 -30 -143 -5 -75 -9 -89 -23 -89 -12 0 -17 9 -18 32 -3 100 -52 209 -138
306 -66 73 -49 86 20 15z m381 -57 c2 -25 -1 -48 -6 -51 -5 -4 -9 -15 -9 -25
0 -20 -87 -155 -119 -184 -41 -37 -42 -10 -2 42 71 89 99 141 112 207 7 36 14
63 16 61 2 -2 6 -24 8 -50z m335 14 c0 -5 -4 -10 -10 -10 -5 0 -25 -14 -45
-31 -19 -17 -35 -27 -35 -21 0 12 67 72 80 72 6 0 10 -4 10 -10z m-420 -40
c-6 -11 -15 -20 -20 -20 -12 0 -38 -53 -66 -135 -13 -38 -21 -54 -17 -35 10
62 44 141 76 176 37 39 42 42 27 14z m121 -83 c-10 -9 -11 -8 -5 6 3 10 9 15
12 12 3 -3 0 -11 -7 -18z m-362 -112 c0 -5 -8 6 -19 25 -11 19 -19 40 -19 45
0 6 8 -6 19 -25 11 -19 19 -39 19 -45z"/>
<path d="M1357 2132 c-33 -36 -15 -112 26 -112 60 0 71 46 26 103 -24 32 -31
33 -52 9z"/>
<path d="M1260 1819 c0 -5 5 -7 10 -4 6 3 10 8 10 11 0 2 -4 4 -10 4 -5 0 -10
-5 -10 -11z"/>
<path d="M1200 1708 c-52 -70 -19 -161 63 -175 l37 -6 0 39 c0 37 -47 155 -67
167 -6 4 -20 -8 -33 -25z"/>
<path d="M4985 2279 c-196 -13 -388 -135 -551 -349 -81 -106 -131 -258 -140
-420 -22 -385 247 -764 606 -856 41 -11 107 -17 180 -18 111 0 119 1 233 43
153 55 228 98 305 174 112 110 184 234 228 392 23 83 28 119 28 215 0 144 -18
220 -84 353 -79 161 -226 315 -370 387 -143 72 -251 91 -435 79z m-87 -110
c-3 -8 -7 -3 -11 10 -4 17 -3 21 5 13 5 -5 8 -16 6 -23z m236 -1 c18 -18 41
-55 51 -83 24 -66 58 -101 125 -133 69 -32 44 -41 -33 -12 -56 21 -107 67
-107 97 0 24 -22 9 -42 -29 -18 -34 -18 -39 -4 -66 8 -16 38 -49 66 -72 59
-50 81 -88 105 -188 22 -93 15 -136 -28 -163 -36 -22 -70 -22 -75 1 -1 10 13
23 40 35 40 18 43 23 42 57 -1 20 -14 69 -30 108 -22 54 -40 80 -73 107 -24
20 -56 56 -71 80 l-27 43 -21 -49 c-15 -36 -32 -57 -61 -75 -22 -14 -46 -36
-53 -48 -25 -45 -58 -133 -58 -155 0 -23 48 -69 88 -84 36 -14 16 -32 -27 -24
-73 13 -107 75 -89 162 19 88 52 147 102 184 49 34 86 84 86 114 0 9 -13 33
-30 52 -43 49 -41 91 7 138 46 44 75 45 117 3z m134 20 c7 -7 12 -22 12 -34 0
-12 8 -32 18 -44 l17 -21 27 20 c16 13 36 19 50 17 12 -3 26 -5 31 -5 18 -2 5
-21 -15 -21 -13 0 -42 -11 -64 -24 l-42 -24 -31 61 c-31 60 -38 87 -23 87 4 0
13 -5 20 -12z m-428 -58 c0 -13 -1 -13 -10 0 -5 8 -10 22 -10 30 0 13 1 13 10
0 5 -8 10 -22 10 -30z m-93 8 c-2 -7 9 -18 25 -25 31 -13 35 -30 13 -59 -14
-19 -14 -19 -15 1 0 37 -28 66 -58 59 l-27 -5 24 20 c26 23 45 27 38 9z m93
-128 c-23 -33 -54 -76 -71 -94 -31 -36 -79 -135 -79 -165 0 -20 -36 -71 -50
-71 -5 0 -5 12 0 28 5 15 16 52 24 82 17 61 23 71 114 174 35 39 71 84 80 99
9 15 18 23 20 18 2 -6 -15 -37 -38 -71z m-159 55 c41 -22 29 -33 -29 -27 -44
4 -51 2 -70 -23 -22 -28 -30 -102 -16 -139 7 -19 35 -21 52 -4 9 9 12 8 12 -6
0 -26 -19 -56 -35 -56 -23 0 -53 40 -60 80 -9 56 12 115 57 155 43 40 48 41
89 20z m737 -7 c0 -13 1 -27 2 -33 7 -29 -1 -38 -15 -19 -18 23 -19 46 -3 62
16 16 15 16 16 -10z m128 -46 c87 -78 99 -162 27 -200 -54 -29 -93 -6 -93 56
0 33 40 68 66 58 21 -8 17 -36 -5 -36 -19 0 -31 -18 -31 -46 0 -8 9 -14 21
-14 34 0 59 19 59 46 0 25 -35 104 -47 104 -14 0 -71 -42 -77 -56 -8 -20 -26
-8 -26 17 0 22 75 63 95 52 5 -4 1 4 -10 16 -13 16 -26 20 -42 16 -22 -5 -30
4 -16 18 14 15 40 5 79 -31z m-911 -22 c3 -5 -1 -10 -9 -10 -21 0 -32 -46 -15
-66 12 -14 11 -16 -6 -13 -26 5 -31 43 -11 75 17 26 31 30 41 14z m775 -106
c21 -44 51 -118 65 -163 l27 -83 -41 -84 c-29 -58 -54 -93 -84 -117 -44 -36
-104 -64 -114 -54 -11 11 6 37 25 37 27 0 100 66 124 113 18 36 20 53 16 156
-5 105 -9 125 -42 205 -55 136 -44 131 24 -10z m-482 77 c3 -8 -1 -12 -9 -9
-7 2 -15 10 -17 17 -3 8 1 12 9 9 7 -2 15 -10 17 -17z m-58 -36 c11 -13 10
-14 -4 -9 -12 4 -16 0 -16 -15 0 -22 -14 -28 -25 -10 -4 5 1 19 11 30 21 23
19 23 34 4z m-381 -123 c8 -16 72 -73 110 -99 2 -2 -1 -13 -7 -26 -6 -12 -13
-35 -14 -52 l-3 -30 -24 45 c-28 53 -40 37 -17 -22 34 -83 -16 -47 -55 41 -29
65 -45 195 -28 230 12 26 12 26 20 -20 4 -26 12 -56 18 -67z m1226 -27 c0 -69
-4 -87 -28 -131 -16 -29 -50 -67 -80 -90 -71 -55 -91 -64 -40 -17 48 43 113
137 113 161 0 9 -18 -11 -41 -45 -40 -63 -69 -92 -56 -60 11 30 0 18 -26 -25
-14 -24 -39 -51 -56 -61 l-31 -18 45 86 c25 47 45 98 45 114 0 22 7 31 31 41
53 22 89 67 89 109 0 21 3 41 7 45 15 15 27 -33 28 -109z m-926 68 c0 -11 -3
-13 -6 -5 -2 6 -10 9 -15 6 -7 -4 -8 -2 -4 4 11 18 26 14 25 -5z m307 -48 c19
-28 16 -54 -8 -69 -14 -8 -21 -7 -34 6 -14 13 -14 21 -4 52 14 42 24 45 46 11z
m-676 -77 c46 -126 77 -175 135 -218 83 -61 172 -111 188 -105 18 7 63 -57 81
-116 l13 -44 17 38 c9 21 43 78 75 125 93 140 95 162 35 283 -51 102 -27 107
35 7 48 -77 52 -87 48 -134 -4 -58 -27 -108 -86 -185 -59 -77 -108 -182 -126
-268 -16 -75 -14 -108 11 -195 17 -59 16 -56 4 -56 -5 0 -16 16 -24 35 -26 61
-34 132 -25 218 19 183 -24 268 -152 304 -55 16 -73 27 -131 85 -71 71 -91
102 -114 177 -13 42 -19 111 -10 111 2 0 14 -28 26 -62z m337 40 c-3 -8 -6 -5
-6 6 -1 11 2 17 5 13 3 -3 4 -12 1 -19z m1014 -60 c-1 -66 -30 -128 -91 -195
-58 -64 -67 -90 -50 -144 20 -60 70 -99 125 -99 33 0 45 -4 45 -15 0 -20 -65
-20 -113 0 -37 15 -77 58 -77 82 0 9 -6 13 -13 10 -11 -4 -13 6 -9 46 4 46 3
50 -14 43 -10 -4 -46 -12 -78 -17 -66 -11 -83 -18 -109 -47 -24 -26 -38 -136
-40 -322 -2 -140 -4 -148 -35 -219 -32 -73 -60 -116 -70 -106 -3 2 -18 -5 -34
-16 -16 -12 -31 -19 -33 -17 -2 2 14 30 35 62 25 37 40 52 40 40 0 -15 3 -13
14 8 94 179 70 384 -66 566 -80 108 -107 206 -74 270 8 15 30 51 50 81 46 67
48 42 5 -65 -39 -98 -35 -138 24 -221 22 -32 58 -89 79 -128 l37 -70 1 38 c0
80 49 140 136 167 176 54 274 156 291 302 5 39 8 46 16 33 5 -10 9 -40 8 -67z
m-1042 15 c0 15 6 27 12 27 7 0 9 -19 4 -59 -8 -73 7 -151 46 -239 16 -36 28
-67 25 -69 -8 -8 -55 63 -87 131 -31 65 -40 124 -26 171 3 11 6 31 7 45 2 24
3 23 10 -5 l8 -30 1 28z m-312 -165 c50 -52 83 -124 83 -179 0 -27 -4 -49 -8
-49 -4 0 -6 16 -4 35 3 26 -4 54 -27 100 -26 53 -39 67 -76 85 -25 12 -45 23
-45 24 0 2 5 18 12 37 l12 34 11 -28 c6 -15 25 -42 42 -59z m1403 37 c0 -14
-4 -25 -9 -25 -5 0 -17 -3 -27 -7 -16 -6 -16 -4 2 25 22 38 34 41 34 7z m-6
-64 c4 -5 2 -20 -2 -32 l-9 -23 -12 21 c-6 12 -11 26 -11 32 0 13 27 15 34 2z
m-1418 -22 c19 -11 34 -22 34 -24 0 -2 -19 -3 -43 -2 -36 2 -42 5 -43 24 -2
28 9 29 52 2z m1312 -63 c-23 -30 -44 -53 -46 -51 -6 6 20 49 47 77 44 46 43
31 -1 -26z m-1268 -32 c23 -27 30 -44 28 -67 -2 -27 -8 -33 -31 -35 -36 -4
-55 12 -79 66 -15 34 -17 46 -8 58 21 25 56 16 90 -22z m1348 7 c39 -36 43
-51 6 -22 -41 32 -84 22 -84 -19 0 -12 8 -15 33 -13 43 5 66 -10 51 -34 -6
-10 -18 -19 -27 -21 -19 -4 -67 44 -67 65 0 17 38 73 48 73 4 0 22 -13 40 -29z
m-1233 -61 c-28 -62 -86 -110 -134 -110 -21 0 -44 6 -50 14 -9 11 -2 12 38 8
26 -2 58 1 70 7 24 13 61 80 61 110 0 11 3 27 7 37 6 16 8 16 16 -4 7 -16 5
-33 -8 -62z m530 59 c4 -6 4 -27 0 -47 -6 -35 -8 -36 -21 -17 -19 25 -18 75 0
75 8 0 18 -5 21 -11z m-451 -38 c4 -5 1 -11 -6 -13 -7 -3 -12 -21 -12 -41 0
-20 -1 -37 -2 -37 -1 0 -8 16 -14 35 -9 28 -9 39 0 50 14 17 26 19 34 6z m886
-15 c0 -15 -18 -31 -26 -23 -7 7 7 37 17 37 5 0 9 -6 9 -14z m-790 -32 c0 -7
-12 -26 -26 -43 -26 -31 -57 -40 -69 -21 -3 6 5 10 18 10 15 0 31 10 42 26 16
24 16 26 -4 31 -12 3 -21 11 -21 18 0 11 6 11 30 2 17 -6 30 -17 30 -23z m725
16 c-34 -22 -45 -25 -45 -10 0 11 35 28 60 29 8 1 2 -8 -15 -19z m-788 -42
c-3 -8 -6 -5 -6 6 -1 11 2 17 5 13 3 -3 4 -12 1 -19z m446 -2 c-10 -13 -20
-20 -22 -14 -1 5 5 16 15 23 26 20 28 18 7 -9z m347 -1 c7 -9 10 -18 7 -22 -8
-7 -37 15 -37 28 0 14 16 11 30 -6z m-433 -7 c14 -22 54 -142 56 -167 1 -13
-4 -26 -12 -29 -9 -3 -11 1 -7 16 7 22 -49 182 -64 182 -5 0 -18 -10 -30 -22
-20 -21 -39 -20 -25 2 16 25 69 37 82 18z m159 -12 c5 -13 -75 -140 -83 -133
-7 8 11 76 20 74 6 -1 16 15 21 36 10 37 32 49 42 23z m-506 -86 c24 0 32 -8
54 -52 26 -52 35 -128 16 -128 -6 0 -12 6 -14 13 -35 123 -52 147 -106 147
-22 0 -43 -6 -51 -16 -19 -23 -16 -78 4 -99 33 -32 97 -184 97 -228 0 -21 -28
16 -34 44 -3 17 -16 52 -28 77 -22 47 -25 55 -27 80 0 7 -14 18 -31 23 -26 10
-30 16 -30 47 0 67 9 80 54 91 22 5 47 7 54 5 8 -2 26 -4 42 -4z m938 -6 c18
-12 22 -25 22 -65 0 -45 -3 -52 -30 -67 -25 -14 -87 -105 -78 -115 2 -1 -6
-22 -16 -45 -11 -23 -21 -40 -23 -38 -8 8 49 142 82 192 56 85 43 124 -42 124
-42 0 -76 -19 -94 -52 -6 -12 -17 -75 -25 -140 -17 -161 -32 -228 -50 -228
-16 0 -17 10 -5 42 5 13 14 79 20 148 17 179 32 218 96 246 41 18 116 17 143
-2z m-443 -83 c-32 -31 -64 -69 -70 -86 -14 -33 -30 -125 -22 -125 3 0 26 28
50 63 77 105 124 154 137 141 8 -9 -4 -29 -48 -80 -105 -119 -141 -194 -142
-291 0 -32 -4 -43 -15 -43 -8 0 -16 8 -17 18 -3 38 4 318 8 335 3 9 42 49 87
88 65 56 83 67 86 53 2 -11 -17 -38 -54 -73z m-736 70 c7 -5 21 -31 30 -59 16
-45 16 -50 2 -42 -23 12 -46 39 -65 78 -16 30 -16 32 1 32 10 0 24 -4 32 -9z
m592 -18 c13 -16 12 -17 -3 -4 -10 7 -18 15 -18 17 0 8 8 3 21 -13z m729 3 c0
-23 -42 -65 -72 -71 l-26 -7 16 46 c15 42 20 46 49 46 22 0 33 -5 33 -14z
m-774 -48 c24 -17 44 -39 44 -49 0 -13 -8 -9 -36 16 -20 18 -52 36 -72 40 -26
5 -32 9 -21 16 23 15 39 11 85 -23z m-337 -2 c39 -41 81 -246 51 -246 -5 0
-10 10 -10 23 0 52 -61 197 -82 197 -4 0 -8 11 -8 25 0 32 20 32 49 1z m928 7
c-2 -5 -20 -35 -40 -68 -19 -33 -50 -100 -67 -150 -29 -81 -61 -142 -47 -90 3
11 8 63 12 115 7 107 32 175 67 190 28 11 81 13 75 3z m-603 -63 c14 -5 26
-17 26 -26 0 -13 -3 -14 -15 -4 -8 6 -36 18 -62 25 l-48 13 37 1 c20 1 48 -3
62 -9z m736 -19 c0 -10 -54 -31 -81 -31 -26 0 -24 19 4 30 29 12 77 12 77 1z
m-1148 -18 c10 -3 16 -9 13 -13 -7 -12 -42 -1 -57 18 -11 14 -10 15 7 8 11 -5
28 -11 37 -13z m70 -137 c14 -25 -117 91 -139 124 -9 13 16 -4 56 -40 40 -35
77 -73 83 -84z m132 67 c4 -17 3 -34 -2 -37 -6 -3 -13 10 -16 30 -4 19 -10 43
-14 52 -5 15 -4 16 10 1 8 -8 19 -29 22 -46z m176 37 c36 -19 40 -24 39 -58
-1 -27 -3 -31 -6 -12 -6 33 -21 50 -43 50 -10 0 -28 9 -41 20 -21 17 -21 19
-6 20 10 0 36 -9 57 -20z m343 -30 c-3 -11 -27 -44 -53 -74 -26 -30 -67 -84
-90 -120 -24 -36 -44 -66 -47 -66 -24 0 79 173 146 242 40 43 52 47 44 18z
m348 4 c11 -14 10 -20 -14 -40 -46 -39 -62 -31 -35 16 26 45 30 47 49 24z
m-727 -30 c3 -8 2 -12 -4 -9 -6 3 -10 10 -10 16 0 14 7 11 14 -7z m56 -75 c0
-17 -28 3 -40 29 l-12 27 26 -24 c14 -14 26 -28 26 -32z m595 22 c3 -5 1 -12
-5 -16 -5 -3 -10 1 -10 9 0 18 6 21 15 7z m-566 -106 c7 -25 11 -48 8 -51 -3
-3 -10 9 -15 28 -5 18 -13 41 -17 51 -4 9 -3 17 2 17 5 0 15 -20 22 -45z"/>
<path d="M5047 2122 c-23 -26 -21 -56 6 -87 l22 -27 28 22 c32 26 34 48 6 84
-24 31 -40 33 -62 8z"/>
<path d="M5245 739 c-4 -6 -5 -12 -2 -15 2 -3 7 2 10 11 7 17 1 20 -8 4z"/>
<path d="M4377 1413 c-24 -24 23 -93 63 -93 33 0 25 41 -14 73 -38 29 -40 30
-49 20z"/>
<path d="M5720 1346 c0 -2 8 -10 18 -17 15 -13 16 -12 3 4 -13 16 -21 21 -21
13z"/>
<path d="M8620 2245 c-164 -37 -335 -163 -452 -332 -40 -58 -80 -117 -89 -132
-29 -47 -50 -153 -61 -306 -10 -129 -9 -164 5 -246 17 -101 76 -255 120 -313
13 -17 33 -49 45 -71 11 -22 52 -74 90 -115 96 -104 215 -170 359 -199 217
-45 272 -39 453 50 110 54 156 85 228 153 41 38 122 146 122 162 0 3 15 39 34
78 18 40 44 115 57 167 43 176 23 452 -45 620 -41 102 -88 170 -181 264 -108
107 -223 180 -328 207 -98 25 -273 32 -357 13z m-36 -81 c20 -8 22 -77 3 -93
-18 -14 -27 -4 -27 30 0 15 -4 31 -10 34 -5 3 -10 13 -10 21 0 15 18 18 44 8z
m251 -18 c40 -17 75 -68 75 -111 0 -22 -9 -37 -34 -57 -91 -73 -32 -147 129
-162 28 -3 51 -6 53 -7 1 -1 5 -2 10 -3 4 0 25 -20 46 -44 35 -39 38 -46 34
-86 -7 -56 -60 -171 -86 -185 -11 -6 -52 -16 -92 -22 -59 -9 -74 -8 -81 3 -22
33 -5 -10 46 -117 30 -64 60 -135 65 -156 13 -48 30 -42 30 10 0 55 45 137 85
157 35 16 82 61 73 69 -3 3 -17 0 -32 -6 -29 -14 -46 -5 -31 15 48 64 66 101
80 161 29 120 38 145 52 145 7 0 16 -7 20 -15 5 -14 7 -14 23 0 10 9 30 36 46
61 15 24 34 44 41 44 33 0 29 -166 -6 -245 -12 -26 -19 -50 -17 -52 2 -3 23 5
46 16 36 17 44 18 56 6 22 -21 27 -66 19 -159 -6 -76 -9 -86 -28 -92 -12 -3
-30 -14 -40 -23 -18 -15 -20 -14 -38 8 -12 14 -17 31 -14 42 4 11 2 19 -4 19
-6 0 -11 14 -11 31 l0 30 -47 -6 c-72 -11 -124 -37 -170 -88 -49 -53 -66 -104
-64 -202 0 -41 -5 -80 -13 -93 -12 -23 -13 -23 -33 25 -11 26 -26 66 -33 88
-19 60 -57 133 -107 203 -53 75 -73 120 -73 167 0 28 12 50 61 110 l61 75 -19
32 c-13 22 -36 40 -76 57 l-57 24 -40 -27 c-60 -40 -61 -62 -5 -158 l47 -81
-11 -54 c-11 -59 -32 -93 -96 -163 -70 -77 -148 -225 -161 -309 -9 -59 -26
-51 -22 11 2 37 -1 53 -9 54 -7 1 -20 2 -28 3 -27 2 -38 39 -25 87 7 24 17 44
21 44 5 0 9 11 9 25 0 29 -68 108 -113 131 -28 15 -95 12 -107 -5 -3 -4 -13
-10 -22 -14 -10 -3 -18 -13 -18 -21 0 -7 -8 -16 -17 -19 -10 -4 -31 -17 -46
-29 -28 -23 -29 -23 -43 -4 -20 29 -20 256 0 256 10 0 14 9 13 27 -3 40 25 40
62 1 l31 -33 -36 105 c-26 76 -34 116 -31 144 8 60 21 63 55 14 16 -23 40 -54
52 -68 30 -34 55 -84 81 -164 21 -67 79 -162 132 -220 25 -27 47 -81 47 -118
0 -67 72 51 74 121 1 37 5 46 20 49 11 2 26 -4 33 -14 12 -16 13 -16 13 -1 0
9 3 16 8 16 21 -4 32 3 32 20 0 20 -16 29 -66 36 -96 12 -158 72 -190 180 -14
49 -14 65 -4 99 13 43 46 102 92 162 15 20 30 52 34 71 l6 34 24 -22 c27 -25
32 -59 9 -59 -10 0 -15 -10 -15 -30 0 -30 -36 -110 -50 -110 -24 0 -35 -123
-14 -155 8 -12 12 -24 8 -27 -3 -3 14 -21 38 -39 56 -44 88 -62 88 -49 0 5 12
10 26 10 22 0 24 3 18 23 -6 22 -6 22 15 -2 40 -46 10 40 -32 89 -23 27 -33
31 -57 27 -25 -6 -29 -3 -35 23 -3 16 -2 38 4 49 6 11 8 26 5 34 -3 9 3 16 16
20 14 3 20 12 18 24 -2 15 5 19 42 21 34 2 53 11 78 35 17 17 32 37 32 45 0 7
-16 34 -35 59 -59 77 -45 150 35 182 14 5 26 10 28 10 1 1 18 -5 37 -13z m225
-17 c0 -6 -7 -12 -15 -15 -8 -4 -15 -15 -15 -25 0 -28 -17 -23 -34 10 -14 27
-14 29 7 38 24 11 57 6 57 -8z m-556 -50 c-3 -5 -14 -9 -25 -9 -13 0 -19 7
-19 23 0 13 3 27 7 31 10 9 45 -33 37 -45z m676 -20 c0 -10 -21 -16 -76 -24
l-49 -7 34 35 c34 36 34 36 63 19 15 -9 28 -19 28 -23z m-767 -8 c7 -27 -16
-56 -37 -48 -21 8 -20 32 2 55 20 22 28 20 35 -7z m812 -50 c13 -5 -2 -8 -42
-7 -33 1 -59 4 -56 9 6 9 72 8 98 -2z m-168 -65 c-7 -17 -34 -20 -86 -10 -46
9 -38 21 22 31 55 10 73 4 64 -21z m-675 13 c28 -7 40 -17 44 -35 9 -34 -23
-90 -58 -105 -29 -12 -93 -5 -103 11 -7 12 71 33 95 25 27 -9 35 28 13 65 -23
40 -42 38 -77 -10 -21 -28 -32 -36 -38 -27 -13 21 -9 46 12 67 22 22 56 25
112 9z m876 -21 c21 -19 24 -20 19 -5 -4 11 -3 16 3 12 6 -3 10 -25 10 -49 0
-54 -33 -89 -76 -82 -16 2 -32 5 -36 5 -5 1 -8 8 -8 16 0 10 10 15 28 15 16 0
37 9 47 20 17 19 17 21 0 40 -33 37 -93 12 -81 -34 9 -35 -9 -42 -22 -8 -22
56 -20 65 23 78 57 18 66 17 93 -8z m-422 -173 c9 -21 -14 -45 -42 -45 -28 0
-30 7 -8 38 18 25 42 29 50 7z m212 -358 c8 -10 6 -22 -9 -46 -24 -40 -39 -32
-39 20 0 31 4 39 19 39 10 0 23 -6 29 -13z m-678 -146 c0 -35 -17 -51 -52 -51
-26 0 -28 3 -28 40 0 27 6 42 18 49 13 8 14 11 2 11 -10 1 -9 4 5 10 26 11 55
-21 55 -59z m436 57 c6 -10 -20 -38 -37 -38 -10 0 -20 30 -13 41 8 13 41 11
50 -3z m438 -14 l19 -26 -24 7 c-20 6 -22 5 -11 -6 17 -19 15 -56 -4 -63 -25
-10 -62 20 -66 51 -7 59 52 83 86 37z m-493 -26 c3 -58 14 -67 34 -28 22 42
51 38 47 -8 -3 -24 1 -32 13 -32 29 0 13 -23 -33 -47 -6 -3 14 -35 21 -34 11
2 57 51 57 61 0 24 19 7 26 -22 3 -18 12 -42 19 -53 7 -11 16 -40 19 -65 3
-25 2 -39 -2 -33 -6 10 -16 7 -40 -10 -37 -28 -33 -40 7 -24 64 24 82 -19 24
-57 -40 -25 -73 -60 -73 -76 0 -15 16 -12 29 4 13 16 72 39 70 28 -1 -4 -31
-34 -67 -67 -36 -33 -62 -51 -57 -40 12 30 11 57 -1 62 -13 4 -14 -1 -21 -105
-2 -45 -8 -80 -12 -78 -4 3 -5 -8 -3 -24 2 -17 1 -42 -3 -57 -6 -25 -9 -22
-35 44 -20 54 -46 93 -96 150 -38 43 -75 82 -81 86 -20 12 -15 37 6 37 30 0
79 -47 107 -103 24 -46 64 -99 64 -84 0 12 -24 62 -45 92 -11 16 -28 46 -39
65 -10 19 -33 53 -50 75 -22 28 -31 50 -31 77 0 44 8 48 31 13 9 -14 21 -25
27 -25 7 0 7 4 -1 12 -7 7 -12 19 -12 27 0 8 -6 22 -14 30 -12 14 -20 49 -17
75 2 14 31 -15 31 -30 0 -17 49 -98 56 -92 2 2 -7 39 -21 82 -22 70 -25 127
-6 126 15 -1 41 -29 41 -44 0 -14 2 -15 14 -4 13 11 12 16 -1 36 -8 14 -12 34
-9 48 7 25 25 33 27 12z m-491 -40 c0 -14 -18 -9 -24 8 -11 28 -6 39 9 20 8
-11 15 -23 15 -28z m-56 -57 c23 -16 59 -32 79 -36 25 -5 55 -25 97 -64 59
-55 60 -57 70 -128 5 -39 17 -92 25 -117 9 -26 14 -50 11 -55 -3 -4 2 -17 10
-29 20 -28 74 -132 69 -132 -2 0 -15 4 -29 10 -36 13 -70 73 -90 158 -10 39
-20 72 -23 72 -5 0 2 -46 10 -70 12 -35 17 -70 10 -70 -16 1 -61 77 -68 113
-4 20 -16 47 -27 59 -33 38 -48 86 -43 136 l4 47 -11 -52 c-6 -31 -16 -53 -24
-53 -20 0 -46 31 -40 47 3 8 6 32 6 54 0 32 4 39 19 39 11 0 33 -11 49 -25 32
-27 42 -31 42 -16 0 18 -57 45 -128 62 -40 9 -74 13 -77 9 -4 -7 24 -39 59
-68 9 -7 16 -28 16 -47 0 -27 -4 -35 -18 -35 -47 0 -105 128 -88 195 9 34 37
32 90 -4z m1239 -55 c-4 -54 -41 -117 -78 -129 -16 -6 -36 -18 -43 -29 -7 -10
-25 -24 -40 -32 -17 -9 -34 -32 -46 -63 -66 -173 -77 -193 -104 -193 -12 0
-12 3 0 23 18 29 33 80 53 191 18 100 38 146 61 146 9 0 18 9 21 20 3 11 9 17
14 14 14 -8 11 -57 -6 -100 l-16 -39 27 30 c15 17 31 30 35 30 17 0 21 15 5
21 -9 4 -16 17 -16 33 l1 26 24 -28 c14 -15 25 -23 25 -18 0 6 9 11 20 11 12
0 25 11 32 26 11 23 10 29 -11 45 -13 11 -32 19 -42 19 -21 0 -26 25 -6 34 6
3 30 4 52 3 40 -2 40 -2 38 -41z m-231 -71 c19 5 20 4 6 -5 -17 -10 -58 -107
-58 -138 0 -9 -9 -35 -19 -57 l-18 -40 -1 75 c-1 41 3 82 8 90 5 8 10 11 10 6
0 -6 7 -1 15 10 8 10 14 28 14 39 0 19 -1 19 -9 -1 -5 -12 -13 -25 -19 -29 -6
-3 -4 10 6 29 12 27 20 33 29 25 7 -6 23 -8 36 -4z m168 -112 c0 -9 -39 -75
-49 -83 -3 -3 -12 -16 -19 -30 -14 -28 -72 -97 -72 -86 0 4 11 29 25 56 14 28
25 52 25 55 -1 7 30 52 53 76 17 19 37 25 37 12z m-1082 -25 c6 -13 17 -43 25
-68 8 -25 18 -53 22 -62 12 -31 -18 -20 -40 13 -11 18 -34 53 -51 80 -18 26
-29 50 -26 53 15 15 59 5 70 -16z m238 -69 c5 -10 42 -52 82 -94 66 -70 142
-170 142 -186 0 -23 -48 13 -98 71 -88 105 -148 204 -157 260 l-6 35 14 -35
c7 -19 17 -42 23 -51z m417 -89 c-3 -10 -11 -25 -19 -31 -8 -6 -14 -17 -14
-23 -1 -15 -90 -121 -90 -105 0 10 43 74 60 89 3 3 16 26 30 52 24 46 43 57
33 18z m37 -104 c0 -2 -8 -10 -17 -17 -16 -13 -17 -12 -4 4 13 16 21 21 21 13z"/>
<path d="M8772 2090 c-12 -5 -25 -17 -29 -25 -9 -25 13 -64 41 -71 32 -8 86
21 86 46 0 19 -25 50 -40 50 -5 0 -14 2 -22 4 -7 3 -23 1 -36 -4z"/>
<path d="M8947 1668 c-10 -18 -28 -53 -42 -78 -24 -44 -37 -127 -14 -87 8 13
24 17 78 17 78 0 81 3 81 78 0 69 -9 94 -30 87 -10 -3 -21 -1 -25 5 -12 19
-31 10 -48 -22z"/>
<path d="M8157 1421 c-4 -17 -1 -17 34 -8 48 12 51 27 5 27 -24 0 -35 -5 -39
-19z"/>
<path d="M8872 1108 c-21 -28 -41 -77 -33 -82 11 -7 61 57 61 78 0 19 -14 21
-28 4z"/>
<path d="M8730 1076 c0 -9 5 -16 10 -16 6 0 10 4 10 9 0 6 -4 13 -10 16 -5 3
-10 -1 -10 -9z"/>
<path d="M8912 1055 l-22 -22 25 5 c16 3 25 11 25 23 0 23 1 23 -28 -6z"/>
<path d="M8786 677 c3 -10 9 -15 12 -12 3 3 0 11 -7 18 -10 9 -11 8 -5 -6z"/>
<path d="M8408 890 c2 -16 6 -30 8 -30 2 0 4 14 4 30 0 17 -4 30 -8 30 -5 0
-7 -13 -4 -30z"/>
<path d="M9241 993 c-10 -26 -10 -27 4 -9 8 11 15 23 15 28 0 15 -7 8 -19 -19z"/>
<path d="M4404 525 c4 -11 10 -35 13 -52 6 -33 16 -42 28 -23 4 6 10 8 15 5 5
-3 11 5 13 17 4 20 4 19 6 -4 2 -50 21 -30 21 22 0 54 -10 62 -34 28 l-16 -22
-26 25 c-24 21 -26 22 -20 4z"/>
<path d="M4705 530 c-3 -6 -3 -31 1 -56 6 -41 9 -45 33 -42 24 3 25 6 22 48
-1 25 -5 48 -8 52 -6 11 -41 10 -48 -2z"/>
<path d="M4836 515 c-9 -13 -16 -31 -16 -38 0 -16 31 -47 47 -47 24 0 32 77
11 98 -17 17 -24 15 -42 -13z m34 -30 c0 -14 -4 -25 -10 -25 -5 0 -10 11 -10
25 0 14 5 25 10 25 6 0 10 -11 10 -25z"/>
<path d="M5081 518 c-33 -83 -34 -77 9 -75 44 1 44 3 15 72 l-13 30 -11 -27z"/>
<path d="M5187 533 c-9 -8 -9 -50 0 -82 l6 -23 14 23 c8 13 12 16 9 7 -3 -12
0 -18 10 -18 24 0 14 69 -12 86 -11 8 -24 11 -27 7z"/>
<path d="M5562 488 c3 -49 5 -53 31 -56 30 -4 36 12 10 27 -17 10 -17 10 0 11
13 0 17 8 17 35 0 32 -2 35 -31 35 l-30 0 3 -52z m43 22 c3 -5 -1 -10 -10 -10
-9 0 -13 5 -10 10 3 6 8 10 10 10 2 0 7 -4 10 -10z"/>
<path d="M5696 518 c9 -30 33 -78 39 -78 5 0 45 75 45 85 0 15 -18 1 -30 -22
l-12 -28 -16 33 c-18 36 -37 44 -26 10z"/>
<path d="M4950 516 c0 -11 10 -16 31 -16 38 0 35 24 -4 28 -19 2 -27 -1 -27
-12z"/>
<path d="M5300 515 c0 -8 5 -15 10 -15 6 0 10 -13 10 -30 0 -16 5 -30 10 -30
6 0 10 13 10 29 0 18 7 32 18 36 15 7 14 9 -8 15 -39 12 -50 11 -50 -5z"/>
<path d="M4571 499 c-17 -46 28 -81 59 -45 15 19 9 58 -9 64 -10 3 -12 0 -7
-14 12 -30 12 -32 1 -36 -5 -1 -11 6 -13 17 -6 34 -21 40 -31 14z"/>
<path d="M5430 498 c0 -13 -3 -33 -6 -45 -5 -19 -2 -23 19 -23 32 0 49 22 45
57 -2 22 -9 29 -30 31 -23 3 -28 0 -28 -20z m33 -1 c3 -8 1 -20 -4 -28 -6 -10
-9 -7 -9 14 0 29 5 35 13 14z"/>
<path d="M4950 444 c0 -11 5 -14 16 -10 9 3 22 6 30 6 8 0 14 5 14 10 0 6 -13
10 -30 10 -21 0 -30 -5 -30 -16z"/>
</g>
</svg>
